REM DIRINDEX 1\2,1\3,1\4\5,1\4\6
REM DIRNAME "folder01","folder02","folder03","folder04","folder05","folder06"
TITLE ""
FILE "Step1_Track51.mp3" MP3
  TRACK 01 AUDIO
    TITLE "0:"
    INDEX 01 00:00:00
  TRACK 02 AUDIO
    TITLE "3:cjc164_1057"
    INDEX 01 00:00:24
  TRACK 03 AUDIO
    TITLE "0:"
    INDEX 01 00:01:74
  TRACK 04 AUDIO
    TITLE "3:cjc164_1058"
    INDEX 01 00:02:52
  TRACK 05 AUDIO
    TITLE "0:"
    INDEX 01 00:03:50
  TRACK 06 AUDIO
    TITLE "3:cjc164_1059"
    INDEX 01 00:03:75
  TRACK 07 AUDIO
    TITLE "0:"
    INDEX 01 00:04:73
  TRACK 08 AUDIO
    TITLE "2:cjc164_1060"
    INDEX 01 00:05:11
  TRACK 09 AUDIO
    TITLE "0:"
    INDEX 01 00:08:53
  TRACK 10 AUDIO
    TITLE "3:cjc164_1061"
    INDEX 01 00:08:73
  TRACK 11 AUDIO
    TITLE "0:"
    INDEX 01 00:09:74
  TRACK 12 AUDIO
    TITLE "2:cjc164_1062"
    INDEX 01 00:10:07
  TRACK 13 AUDIO
    TITLE "0:"
    INDEX 01 00:12:06
  TRACK 14 AUDIO
    TITLE "3:cjc164_1063"
    INDEX 01 00:12:62
  TRACK 15 AUDIO
    TITLE "0:"
    INDEX 01 00:13:58
  TRACK 16 AUDIO
    TITLE "3:cjc164_1064"
    INDEX 01 00:14:07
  TRACK 17 AUDIO
    TITLE "0:"
    INDEX 01 00:15:02
  TRACK 18 AUDIO
    TITLE "2:cjc164_1065"
    INDEX 01 00:15:10
  TRACK 19 AUDIO
    TITLE "0:"
    INDEX 01 00:16:68
  TRACK 20 AUDIO
    TITLE "3:cjc164_1066"
    INDEX 01 00:17:11
  TRACK 21 AUDIO
    TITLE "0:"
    INDEX 01 00:18:12
  TRACK 22 AUDIO
    TITLE "2:cjc164_1067"
    INDEX 01 00:18:26
  TRACK 23 AUDIO
    TITLE "0:"
    INDEX 01 00:20:52
  TRACK 24 AUDIO
    TITLE "3:cjc164_1068"
    INDEX 01 00:21:36
  TRACK 25 AUDIO
    TITLE "0:"
    INDEX 01 00:22:39
  TRACK 26 AUDIO
    TITLE "3:cjc164_1069"
    INDEX 01 00:22:43
  TRACK 27 AUDIO
    TITLE "0:"
    INDEX 01 00:23:41
  TRACK 28 AUDIO
    TITLE "2:cjc164_1070"
    INDEX 01 00:23:45
  TRACK 29 AUDIO
    TITLE "0:"
    INDEX 01 00:25:42
  TRACK 30 AUDIO
    TITLE "3:cjc164_1071"
    INDEX 01 00:25:65
  TRACK 31 AUDIO
    TITLE "0:"
    INDEX 01 00:26:66
  TRACK 32 AUDIO
    TITLE "2:cjc164_1072"
    INDEX 01 00:27:13
  TRACK 33 AUDIO
    TITLE "0:"
    INDEX 01 00:29:59
  TRACK 34 AUDIO
    TITLE "3:cjc164_1073"
    INDEX 01 00:30:43
  TRACK 35 AUDIO
    TITLE "0:"
    INDEX 01 00:31:44
  TRACK 36 AUDIO
    TITLE "3:cjc164_1074"
    INDEX 01 00:31:66
  TRACK 37 AUDIO
    TITLE "0:"
    INDEX 01 00:32:67
  TRACK 38 AUDIO
    TITLE "2:cjc164_1075"
    INDEX 01 00:32:75
  TRACK 39 AUDIO
    TITLE "0:"
    INDEX 01 00:34:35
  TRACK 40 AUDIO
    TITLE "3:cjc164_1076"
    INDEX 01 00:34:50
  TRACK 41 AUDIO
    TITLE "0:"
    INDEX 01 00:35:54
  TRACK 42 AUDIO
    TITLE "2:cjc164_1077"
    INDEX 01 00:35:64
  TRACK 43 AUDIO
    TITLE "0:"
    INDEX 01 00:37:53
  TRACK 44 AUDIO
    TITLE "3:cjc164_1078"
    INDEX 01 00:38:34
  TRACK 45 AUDIO
    TITLE "0:"
    INDEX 01 00:39:40
  TRACK 46 AUDIO
    TITLE "3:cjc164_1079"
    INDEX 01 00:39:69
  TRACK 47 AUDIO
    TITLE "0:"
    INDEX 01 00:40:73
  TRACK 48 AUDIO
    TITLE "2:cjc164_1080"
    INDEX 01 00:41:09
  TRACK 49 AUDIO
    TITLE "0:"
    INDEX 01 00:43:57
  TRACK 50 AUDIO
    TITLE "3:cjc164_1081"
    INDEX 01 00:44:12
  TRACK 51 AUDIO
    TITLE "0:"
    INDEX 01 00:45:11
  TRACK 52 AUDIO
    TITLE "2:cjc164_1082"
    INDEX 01 00:45:36
  TRACK 53 AUDIO
    TITLE "0:"
    INDEX 01 00:47:63
  TRACK 54 AUDIO
    TITLE "3:cjc164_1083"
    INDEX 01 00:48:33
  TRACK 55 AUDIO
    TITLE "0:"
    INDEX 01 00:49:36
  TRACK 56 AUDIO
    TITLE "3:cjc164_1084"
    INDEX 01 00:49:56
  TRACK 57 AUDIO
    TITLE "0:"
    INDEX 01 00:50:57
  TRACK 58 AUDIO
    TITLE "2:cjc164_1085"
    INDEX 01 00:50:75
  TRACK 59 AUDIO
    TITLE "0:"
    INDEX 01 00:53:24
  TRACK 60 AUDIO
    TITLE "3:cjc164_1086"
    INDEX 01 00:53:48
  TRACK 61 AUDIO
    TITLE "0:"
    INDEX 01 00:54:51
  TRACK 62 AUDIO
    TITLE "2:cjc164_1087"
    INDEX 01 00:54:69
  TRACK 63 AUDIO
    TITLE "0:"
    INDEX 01 00:57:18
  TRACK 64 AUDIO
    TITLE "3:cjc164_1088"
    INDEX 01 00:57:69
  TRACK 65 AUDIO
    TITLE "0:"
    INDEX 01 00:58:72
  TRACK 66 AUDIO
    TITLE "3:cjc164_1089"
    INDEX 01 00:59:13
  TRACK 67 AUDIO
    TITLE "0:"
    INDEX 01 01:00:09
  TRACK 68 AUDIO
    TITLE "2:cjc164_1090"
    INDEX 01 01:00:18
  TRACK 69 AUDIO
    TITLE "0:"
    INDEX 01 01:01:53
  TRACK 70 AUDIO
    TITLE "3:cjc164_1091"
    INDEX 01 01:01:67
  TRACK 71 AUDIO
    TITLE "0:"
    INDEX 01 01:02:70
  TRACK 72 AUDIO
    TITLE "2:cjc164_1092"
    INDEX 01 01:03:13
  TRACK 73 AUDIO
    TITLE "0:"
    INDEX 01 01:05:14
